<svg xmlns="http://www.w3.org/2000/svg" viewBox="0 0 96 96" fill="none">
  <defs>
    <linearGradient id="shield" x1="14" y1="10" x2="82" y2="88" gradientUnits="userSpaceOnUse">
      <stop stop-color="#67E8F9"/>
      <stop offset="0.48" stop-color="#22D3EE"/>
      <stop offset="1" stop-color="#34D399"/>
    </linearGradient>
    <linearGradient id="panel" x1="24" y1="20" x2="72" y2="76" gradientUnits="userSpaceOnUse">
      <stop stop-color="#0D2530"/>
      <stop offset="1" stop-color="#031116"/>
    </linearGradient>
    <filter id="glow" x="0" y="0" width="96" height="96" filterUnits="userSpaceOnUse" color-interpolation-filters="sRGB">
      <feGaussianBlur stdDeviation="4" result="blur"/>
      <feColorMatrix in="blur" type="matrix" values="0 0 0 0 0.133 0 0 0 0 0.827 0 0 0 0 0.933 0 0 0 0.55 0"/>
      <feBlend in="SourceGraphic"/>
    </filter>
  </defs>
  <path d="M48 7L80 18.5V43.5C80 64.5 67.2 80.2 48 89C28.8 80.2 16 64.5 16 43.5V18.5L48 7Z" fill="url(#shield)" opacity="0.2"/>
  <path d="M48 9.5L77 20V43.2C77 61.9 65.8 76.3 48 84.6C30.2 76.3 19 61.9 19 43.2V20L48 9.5Z" stroke="url(#shield)" stroke-width="3" filter="url(#glow)"/>
  <path d="M29 27C29 24.8 30.8 23 33 23H63C65.2 23 67 24.8 67 27V62C67 64.2 65.2 66 63 66H33C30.8 66 29 64.2 29 62V27Z" fill="url(#panel)" stroke="#67E8F9" stroke-opacity="0.42" stroke-width="2"/>
  <path d="M38 36H58M38 44H48M38 52H45" stroke="#A5F3FC" stroke-width="3" stroke-linecap="round"/>
  <path d="M52 43L62 49L52 55V43Z" fill="#22D3EE"/>
  <path d="M24 35H18M78 35H72M24 51H18M78 51H72M35 19V13M61 19V13M35 77V71M61 77V71" stroke="#34D399" stroke-width="2.5" stroke-linecap="round" opacity="0.9"/>
  <circle cx="48" cy="48" r="31" stroke="#67E8F9" stroke-opacity="0.16" stroke-width="2" stroke-dasharray="4 7"/>
</svg>
